<svg width="40" height="40" viewBox="0 0 40 40" fill="none" xmlns="http://www.w3.org/2000/svg">
<path d="M19.9689 19.9177L6.04564 6.25132L33.8879 6.25132L19.9689 19.9177Z" fill="url(#paint0_linear_6842_31716)" fill-opacity="0.5"/>
<path d="M19.9996 20L33.9229 33.6664H6.08057L19.9996 20Z" fill="url(#paint1_linear_6842_31716)" fill-opacity="0.5"/>
<path fill-rule="evenodd" clip-rule="evenodd" d="M5.46347 7.77305C4.29642 6.7222 5.19472 5.02173 6.91686 5.02173H33.1762C34.0858 5.02173 34.8232 5.63359 34.8232 6.38837C34.8232 7.14314 34.0858 7.75501 33.1762 7.75501H9.92283L22.2573 18.8614C22.9548 19.4894 22.9547 20.4564 22.2571 21.0843L9.85782 32.2452H33.4398C34.3494 32.2452 35.0868 32.8571 35.0868 33.6118C35.0868 34.3666 34.3494 34.9785 33.4398 34.9785H6.85116C5.12883 34.9785 4.23063 33.2777 5.398 32.227L19.0121 19.9726L5.46347 7.77305Z" fill="#23F7DD"/>
<path d="M34.1711 6.38836C34.1711 6.09371 33.8391 5.66837 33.1762 5.66837H6.91683C6.27572 5.66838 5.85569 5.97916 5.68445 6.30332C5.52513 6.60497 5.54321 6.97121 5.90194 7.29427L19.4505 19.4939C19.5866 19.6164 19.6643 19.7903 19.6643 19.9726C19.6642 20.1549 19.5866 20.3287 19.4505 20.4512L5.83647 32.7055C5.47754 33.0286 5.45945 33.3952 5.61878 33.6969C5.79003 34.021 6.21002 34.3318 6.85117 34.3318H33.4398C34.1027 34.3318 34.4346 33.9065 34.4346 33.6118C34.4346 33.3172 34.1028 32.8919 33.4398 32.8918H9.85781C9.58833 32.8918 9.34662 32.7274 9.2495 32.4782C9.15239 32.2289 9.21992 31.946 9.41947 31.7664L21.8187 20.6054L21.8561 20.5702C22.2188 20.2135 22.2189 19.732 21.8563 19.3752L21.8189 19.34L9.48434 8.2336C9.28487 8.05397 9.21747 7.77123 9.31457 7.52201C9.41169 7.27278 9.65338 7.10835 9.92288 7.10835H33.1762C33.8391 7.10835 34.1711 6.68301 34.1711 6.38836ZM35.4755 6.38836C35.4755 7.60324 34.3324 8.40153 33.1762 8.40153H11.6111L22.6959 18.3827L22.7411 18.4245C23.6631 19.2972 23.663 20.6486 22.7409 21.5211L22.6955 21.5629L11.5465 31.5985H33.4398C34.5961 31.5985 35.7389 32.3969 35.7389 33.6118C35.7389 34.8267 34.596 35.625 33.4398 35.625H6.85117C5.77006 35.625 4.87972 35.0855 4.4631 34.2966C4.03462 33.4853 4.15121 32.4759 4.95961 31.7482L18.0418 19.9724L5.02507 8.25158C4.21686 7.52384 4.10045 6.51461 4.52896 5.70336C4.94563 4.9146 5.83585 4.37502 6.91683 4.375H33.1762C34.3324 4.375 35.4755 5.17346 35.4755 6.38836Z" fill="#23F7DD"/>
<defs>
<linearGradient id="paint0_linear_6842_31716" x1="19.9668" y1="4.68744" x2="19.9668" y2="19.9177" gradientUnits="userSpaceOnUse">
<stop stop-color="#06DFC4" stop-opacity="0.2"/>
<stop offset="1" stop-color="#06DFC4"/>
</linearGradient>
<linearGradient id="paint1_linear_6842_31716" x1="20.0017" y1="35.2303" x2="20.0017" y2="20" gradientUnits="userSpaceOnUse">
<stop stop-color="#06DFC4" stop-opacity="0.2"/>
<stop offset="1" stop-color="#06DFC4"/>
</linearGradient>
</defs>
</svg>
